# xmcd
#
# Track frame offsets: 
#        150
#        17195
#        38080
#        63165
#        90817
#        108749
#        129536
#        147446
#        175196
#        193178
#        215768
#        236353
#        258804
#        277059
#        288909
#        315515
#
# Disc length: 4424 seconds
#
# Revision: 0
# Processed by: cddbd v1.5.2PL0 Copyright (c) Steve Scherf et al.
# Submitted via: ExactAudioCopy v0.95a5
#
DISCID=e6114610
DTITLE=Various Artist - Qh-113
DYEAR=1900
DGENRE=
TTITLE0=Track01 - Track01
TTITLE1=Track02 - Track02
TTITLE2=Track03 - Track03
TTITLE3=Track04 - Track04
TTITLE4=Track05 - Track05
TTITLE5=Track06 - Track06
TTITLE6=Track07 - Track07
TTITLE7=Track08 - Track08
TTITLE8=Track09 - Track09
TTITLE9=Track10 - Track10
TTITLE10=Track11 - Track11
TTITLE11=Track12 - Track12
TTITLE12=Track13 - Track13
TTITLE13=Track14 - Track14
TTITLE14=Track15 - Track15
TTITLE15=Track16 - Track16
EXTD=
EXTT0=
EXTT1=
EXTT2=
EXTT3=
EXTT4=
EXTT5=
EXTT6=
EXTT7=
EXTT8=
EXTT9=
EXTT10=
EXTT11=
EXTT12=
EXTT13=
EXTT14=
EXTT15=
PLAYORDER=
